<svg id="Layer_1" data-name="Layer 1" xmlns="http://www.w3.org/2000/svg" viewBox="0 0 423 783"><defs><style>.cls-1{fill:#12a0d6;}.cls-2{fill:#088eb7;}.cls-3{fill:#086b7c;}</style></defs><polygon class="cls-1" points="28.88 56.33 273.69 0.29 273.69 779.94 28.88 652.43 28.88 56.33"/><polygon class="cls-2" points="395.02 717.11 273.69 780.35 273.69 0 395.02 27.8 395.02 717.11"/><polygon class="cls-3" points="274.54 676.38 152.37 624.68 152.37 557.66 272.99 599.3 274.4 595.2 152.37 553.08 152.37 479.43 273.15 510.84 274.24 506.65 152.37 474.96 152.37 366.46 273.4 383.05 273.99 378.76 152.37 362.08 152.37 227.48 152.39 229.65 273.72 228.22 273.67 223.89 152.37 225.32 152.37 186.32 152.49 188.48 273.82 181.62 273.57 177.29 152.37 184.15 152.37 142.88 273.92 129.96 273.46 125.65 152.37 138.52 152.37 28.16 148.04 28.16 148.04 138.98 28.65 151.67 29.11 155.98 148.04 143.34 148.04 330.8 29.1 318.49 28.65 322.8 148.04 335.16 148.04 380.94 29.22 362.12 28.54 366.39 148.04 385.32 148.04 508.39 29.5 473.08 28.26 477.23 148.04 512.91 148.04 650.92 29.77 597.25 27.98 601.19 148.04 655.68 148.04 714.95 152.37 714.95 152.37 629.39 272.85 680.37 274.54 676.38"/></svg>