<svg id="Layer_1" data-name="Layer 1" xmlns="http://www.w3.org/2000/svg" viewBox="0 0 349 683"><defs><style>.cls-1{fill:#12a0d6;}.cls-2{fill:#088eb7;}.cls-3{fill:#086b7c;}</style></defs><polygon class="cls-1" points="9.04 49.4 223.74 0.26 223.74 683.99 9.04 572.17 9.04 49.4"/><polygon class="cls-2" points="330.14 628.89 223.74 684.35 223.74 0 330.14 24.38 330.14 628.89"/><polygon class="cls-3" points="224.48 593.17 117.34 547.84 117.34 489.06 223.12 525.57 224.36 521.98 117.34 485.04 117.34 420.45 223.26 448 224.22 444.32 117.34 416.53 117.34 321.38 223.48 335.93 224 332.16 117.34 317.54 117.34 199.5 117.36 201.4 223.76 200.14 223.72 196.34 117.34 197.6 117.34 163.4 117.45 165.29 223.84 159.27 223.63 155.48 117.34 161.5 117.34 125.3 223.94 113.97 223.54 110.19 117.34 121.48 117.34 24.7 113.54 24.7 113.54 121.88 8.84 133.01 9.24 136.79 113.54 125.7 113.54 290.11 9.24 279.31 8.84 283.09 113.54 293.93 113.54 334.07 9.34 317.57 8.74 321.32 113.54 337.92 113.54 445.85 9.58 414.88 8.5 418.52 113.54 449.81 113.54 570.85 9.82 523.77 8.26 527.23 113.54 575.02 113.54 626.99 117.34 626.99 117.34 551.96 223 596.67 224.48 593.17"/></svg>